<svg width="34" height="34" viewBox="0 0 34 34" fill="none" xmlns="http://www.w3.org/2000/svg">
<path fill-rule="evenodd" clip-rule="evenodd" d="M30.5656 27.0386C32.6452 24.2333 33.875 20.7603 33.875 17C33.875 7.68013 26.3197 0.125 17 0.125C7.68013 0.125 0.125 7.68013 0.125 17C0.125 26.3197 7.68013 33.875 17 33.875C21.8897 33.875 26.2935 31.7954 29.3757 28.4723C29.7983 28.0165 30.1955 27.5379 30.5656 27.0386ZM29.63 25.4375C31.2453 23.0242 32.1874 20.1221 32.1874 17C32.1874 8.61218 25.3878 1.81246 16.9998 1.81246C8.61218 1.81246 1.81246 8.61218 1.81246 17C1.81246 20.1222 2.7545 23.0242 4.37002 25.4375C6.40812 22.3927 9.51806 20.126 13.1601 19.1772C11.4016 17.9586 10.25 15.9264 10.25 13.6249C10.25 9.89701 13.2721 6.87486 17 6.87486C20.7279 6.87486 23.75 9.89701 23.75 13.6249C23.75 15.9262 22.5982 17.9586 20.8399 19.177C24.4818 20.126 27.5919 22.3925 29.63 25.4375ZM28.543 26.8705C26.1747 22.9761 21.8913 20.3749 17.0002 20.3749C12.1089 20.3749 7.82526 22.9761 5.457 26.8707C8.24249 30.125 12.3803 32.1875 17 32.1875C21.6197 32.1875 25.7575 30.1249 28.543 26.8705ZM17 18.6875C19.796 18.6875 22.0626 16.4211 22.0626 13.6249C22.0626 10.8289 19.7962 8.56232 17 8.56232C14.2038 8.56232 11.9374 10.8291 11.9374 13.6251C11.9374 16.4211 14.204 18.6875 17 18.6875Z" fill="#164793"/>
</svg>
