<svg width="31" height="27" viewBox="0 0 31 27" fill="none" xmlns="http://www.w3.org/2000/svg">
<path d="M15.0956 23.4345C15.0956 25.318 13.5687 26.8448 11.6852 26.8448C9.80171 26.8448 8.27483 25.318 8.27483 23.4345C8.27483 22.1778 8.95448 21.0799 9.96629 20.4883C9.94791 20.4396 8.49012 14.4979 5.59304 2.66342C5.57006 2.56931 5.51825 2.48472 5.44487 2.42147C5.37148 2.35823 5.28018 2.31947 5.18371 2.31063L1.08509 2.30868C0.485849 2.30862 0 1.82283 0 1.22352C0 0.64418 0.453954 0.170931 1.02557 0.14001L5.14122 0.138428C6.32821 0.138428 7.36497 0.931234 7.68045 2.06855L8.21707 4.26066L29.9149 4.26084C30.5143 4.26084 31 4.74669 31 5.34593C31 5.38909 30.9857 5.50218 30.9571 5.68527L28.2517 16.536C28.1227 17.0534 27.6424 17.3906 27.1285 17.3565L11.4163 17.3605L11.9801 19.6683C12.0031 19.7624 12.0549 19.847 12.1283 19.9103C12.2017 19.9735 12.293 20.0123 12.3895 20.0211L25.0166 20.024C26.9001 20.024 28.427 21.5509 28.427 23.4344C28.427 25.1996 27.0859 26.6516 25.3669 26.827C25.2505 26.8389 25.1336 26.8448 25.0166 26.8448C23.1331 26.8448 21.6062 25.3179 21.6062 23.4344C21.6057 23.0098 21.6847 22.5889 21.839 22.1934H14.8627C15.0171 22.5889 15.0961 23.0099 15.0956 23.4345ZM25.0167 22.1943C24.3318 22.1943 23.7766 22.7495 23.7766 23.4344C23.7766 24.1193 24.3318 24.6745 25.0167 24.6745C25.7016 24.6745 26.2568 24.1193 26.2568 23.4344C26.2568 22.7495 25.7016 22.1943 25.0167 22.1943ZM11.6851 22.1943C11.0003 22.1943 10.445 22.7495 10.445 23.4344C10.445 24.1193 11.0003 24.6745 11.6851 24.6745C12.37 24.6745 12.9253 24.1193 12.9253 23.4344C12.9253 22.7495 12.3701 22.1943 11.6851 22.1943ZM28.5343 6.43085H8.74729L10.8866 15.1909L26.3505 15.1903L28.5343 6.43085Z" fill="#164793"/>
</svg>
