<svg xmlns="http://www.w3.org/2000/svg" width="30" height="30" viewBox="0 0 30 30" fill="none">
  <path fill-rule="evenodd" clip-rule="evenodd" d="M20.1707 21.5849C20.5612 21.9755 21.1943 21.9755 21.5849 21.5849C21.9754 21.1944 21.9754 20.5612 21.5849 20.1707L16.4142 15L21.5849 9.82928C21.9754 9.43876 21.9754 8.80559 21.5849 8.41507C21.1943 8.02454 20.5612 8.02454 20.1707 8.41507L14.9999 13.5858L9.82922 8.41507C9.4387 8.02454 8.80553 8.02454 8.41501 8.41507C8.02449 8.80559 8.02449 9.43876 8.41501 9.82928L13.5857 15L8.41501 20.1707C8.02449 20.5612 8.02449 21.1944 8.41501 21.5849C8.80553 21.9755 9.4387 21.9755 9.82922 21.5849L14.9999 16.4142L20.1707 21.5849Z" fill="#164793"/>
</svg>